<svg width="72" height="72" viewBox="0 0 72 72" fill="none" xmlns="http://www.w3.org/2000/svg">
<path d="M15 5.5C12.4804 5.5 10.0641 6.50089 8.28249 8.28249C6.50089 10.0641 5.5 12.4804 5.5 15V21C5.5 21.663 5.23661 22.2989 4.76777 22.7678C4.29892 23.2366 3.66304 23.5 3 23.5C2.33696 23.5 1.70107 23.2366 1.23223 22.7678C0.763392 22.2989 0.5 21.663 0.5 21V15C0.5 11.1544 2.02767 7.46623 4.74695 4.74695C7.46623 2.02767 11.1544 0.5 15 0.5H21C21.663 0.5 22.2989 0.763392 22.7678 1.23223C23.2366 1.70107 23.5 2.33696 23.5 3C23.5 3.66304 23.2366 4.29892 22.7678 4.76777C22.2989 5.23661 21.663 5.5 21 5.5H15Z" fill="#BF9952" stroke="#BF9952"/>
<path d="M66.5 15C66.5 12.4804 65.4991 10.0641 63.7175 8.28249C61.9359 6.50089 59.5196 5.5 57 5.5H51C50.337 5.5 49.7011 5.23661 49.2322 4.76777C48.7634 4.29893 48.5 3.66304 48.5 3C48.5 2.33696 48.7634 1.70107 49.2322 1.23223C49.7011 0.763393 50.337 0.5 51 0.5H57C60.8456 0.5 64.5338 2.02767 67.253 4.74695C69.9723 7.46623 71.5 11.1544 71.5 15V21C71.5 21.663 71.2366 22.2989 70.7678 22.7678C70.2989 23.2366 69.663 23.5 69 23.5C68.337 23.5 67.7011 23.2366 67.2322 22.7678C66.7634 22.2989 66.5 21.663 66.5 21V15Z" fill="#BF9952" stroke="#BF9952"/>
<path d="M63.7175 63.7175C65.4991 61.9359 66.5 59.5196 66.5 57V51C66.5 50.337 66.7634 49.7011 67.2322 49.2322C67.7011 48.7634 68.337 48.5 69 48.5C69.663 48.5 70.2989 48.7634 70.7678 49.2322C71.2366 49.7011 71.5 50.337 71.5 51V57C71.5 60.8456 69.9723 64.5338 67.253 67.253C64.5338 69.9723 60.8456 71.5 57 71.5H51C50.337 71.5 49.7011 71.2366 49.2322 70.7678C48.7634 70.2989 48.5 69.663 48.5 69C48.5 68.337 48.7634 67.7011 49.2322 67.2322C49.7011 66.7634 50.337 66.5 51 66.5H57C59.5196 66.5 61.9359 65.4991 63.7175 63.7175Z" fill="#BF9952" stroke="#BF9952"/>
<path d="M5.5 57C5.5 59.5196 6.50089 61.9359 8.28249 63.7175C10.0641 65.4991 12.4804 66.5 15 66.5H22.5C23.163 66.5 23.7989 66.7634 24.2678 67.2322C24.7366 67.7011 25 68.337 25 69C25 69.663 24.7366 70.2989 24.2678 70.7678C23.7989 71.2366 23.163 71.5 22.5 71.5H15C11.1544 71.5 7.46623 69.9723 4.74695 67.253C2.02767 64.5338 0.5 60.8456 0.5 57V49.5C0.5 48.837 0.763393 48.2011 1.23223 47.7322C1.70107 47.2634 2.33696 47 3 47C3.66304 47 4.29893 47.2634 4.76777 47.7322C5.23661 48.2011 5.5 48.837 5.5 49.5V57Z" fill="#BF9952" stroke="#BF9952"/>
<path d="M14.9896 14.9896C16.5836 13.3955 18.7457 12.5 21 12.5H51C53.2543 12.5 55.4163 13.3955 57.0104 14.9896C58.6045 16.5836 59.5 18.7457 59.5 21V51C59.5 53.2543 58.6045 55.4163 57.0104 57.0104C55.4163 58.6045 53.2543 59.5 51 59.5H21C18.7457 59.5 16.5836 58.6045 14.9896 57.0104C13.3955 55.4163 12.5 53.2543 12.5 51V21C12.5 18.7457 13.3955 16.5836 14.9896 14.9896ZM18.5251 18.5251C17.8687 19.1815 17.5 20.0717 17.5 21V51C17.5 51.9282 17.8687 52.8185 18.5251 53.4749C19.1815 54.1312 20.0717 54.5 21 54.5H51C51.9282 54.5 52.8185 54.1312 53.4749 53.4749C54.1312 52.8185 54.5 51.9282 54.5 51V21C54.5 20.0717 54.1312 19.1815 53.4749 18.5251C52.8185 17.8687 51.9282 17.5 51 17.5H21C20.0717 17.5 19.1815 17.8687 18.5251 18.5251Z" fill="#BF9952" stroke="#BF9952"/>
</svg>
