<svg width="74" height="72" viewBox="0 0 74 72" fill="none" xmlns="http://www.w3.org/2000/svg">
<path d="M12.7201 0L8.99893 3.80672L14.5357 9.47618L18.2516 5.66946L12.7174 0H12.7201ZM61.2826 0L55.7458 5.66946L59.4643 9.47618L64.9984 3.80942L61.2799 0H61.2826ZM37 1.68947C36.1279 1.7003 35.2451 1.75174 34.3571 1.86275C34.3307 1.86275 34.3043 1.85733 34.2779 1.86275C23.5584 3.12172 15.0273 11.9941 13.5446 22.9269C12.3606 31.7262 15.9021 39.7052 21.8036 44.844C24.2176 46.9546 25.8504 49.8508 26.4286 53.0476V69.2925H32.4543C33.374 70.9089 35.0522 72 37 72C38.9478 72 40.626 70.9089 41.5457 69.2925H47.5714V58.4626H47.8199V55.2461C47.8199 51.277 49.8337 47.2753 53.1056 44.1644C57.4821 39.6754 60.7857 33.2993 60.7857 25.9756C60.7857 12.6006 50.0399 1.56492 37 1.68947ZM37 7.10443C47.2146 6.95822 55.5 15.5247 55.5 25.9756C55.5 31.645 52.9364 36.6376 49.3871 40.271L49.4716 40.3577C45.9444 43.6898 43.6636 48.1791 43.0231 53.0504H31.4632C30.8818 48.4097 28.9393 43.918 25.2684 40.6961C20.5984 36.6349 17.8155 30.516 18.7458 23.6065C19.9007 15.078 26.6559 8.21991 34.9333 7.28041C35.6167 7.1828 36.3049 7.12495 36.9947 7.10713L37 7.10443ZM0 25.9756V31.3905H7.92857V25.9756H0ZM66.0714 25.9756V31.3905H74V25.9756H66.0714ZM14.5357 47.8899L9.00157 53.5567L12.7201 57.3661L18.2489 51.6966L14.5357 47.8899ZM59.4643 47.8899L55.7484 51.6966L61.2799 57.3661L64.9984 53.5567L59.4643 47.8899ZM31.7143 58.4653H42.2857V63.8803H31.7143V58.4653Z" fill="#BF9952"/>
</svg>
