<svg width="78" height="60" viewBox="0 0 78 60" fill="none" xmlns="http://www.w3.org/2000/svg">
<path d="M77.7771 29.001L69.42 9.86743C69.2067 9.37338 68.85 8.95184 68.3943 8.65534C67.9385 8.35885 67.404 8.20052 66.8571 8.20008H58.5V2.73336C58.5 2.00843 58.2065 1.31319 57.6841 0.800583C57.1617 0.287979 56.4531 0 55.7143 0H2.78571C2.0469 0 1.33834 0.287979 0.815917 0.800583C0.293494 1.31319 0 2.00843 0 2.73336V49.2005C0 49.9254 0.293494 50.6207 0.815917 51.1333C1.33834 51.6459 2.0469 51.9338 2.78571 51.9338H8.74714C9.38864 54.25 10.7891 56.2947 12.7324 57.7524C14.6757 59.2102 17.0539 60 19.5 60C21.9461 60 24.3243 59.2102 26.2676 57.7524C28.2109 56.2947 29.6114 54.25 30.2529 51.9338H47.7471C48.3886 54.25 49.7891 56.2947 51.7324 57.7524C53.6757 59.2102 56.0539 60 58.5 60C60.9461 60 63.3243 59.2102 65.2676 57.7524C67.2109 56.2947 68.6114 54.25 69.2529 51.9338H75.2143C75.9531 51.9338 76.6617 51.6459 77.1841 51.1333C77.7065 50.6207 78 49.9254 78 49.2005V30.067C77.9993 29.7006 77.9235 29.338 77.7771 29.001ZM58.5 13.6668H65.0186L70.98 27.3336H58.5V13.6668ZM19.5 54.6672C18.3981 54.6672 17.3209 54.3466 16.4047 53.7459C15.4885 53.1452 14.7744 52.2914 14.3527 51.2925C13.931 50.2936 13.8207 49.1944 14.0356 48.134C14.2506 47.0735 14.7812 46.0995 15.5604 45.3349C16.3396 44.5704 17.3323 44.0497 18.4131 43.8388C19.4938 43.6279 20.614 43.7361 21.6321 44.1499C22.6501 44.5637 23.5203 45.2643 24.1325 46.1633C24.7447 47.0623 25.0714 48.1193 25.0714 49.2005C25.0714 50.6504 24.4844 52.0408 23.4396 53.066C22.3947 54.0913 20.9776 54.6672 19.5 54.6672ZM47.7471 46.4671H30.2529C29.6114 44.151 28.2109 42.1063 26.2676 40.6485C24.3243 39.1908 21.9461 38.401 19.5 38.401C17.0539 38.401 14.6757 39.1908 12.7324 40.6485C10.7891 42.1063 9.38864 44.151 8.74714 46.4671H5.57143V5.46672H52.9286V39.7977C51.6601 40.5201 50.5494 41.4811 49.6603 42.6256C48.7711 43.7701 48.121 45.0756 47.7471 46.4671ZM58.5 54.6672C57.3981 54.6672 56.3209 54.3466 55.4047 53.7459C54.4885 53.1452 53.7744 52.2914 53.3527 51.2925C52.931 50.2936 52.8207 49.1944 53.0356 48.134C53.2506 47.0735 53.7812 46.0995 54.5604 45.3349C55.3396 44.5704 56.3323 44.0497 57.4131 43.8388C58.4938 43.6279 59.6141 43.7361 60.6321 44.1499C61.6501 44.5637 62.5203 45.2643 63.1325 46.1633C63.7447 47.0623 64.0714 48.1193 64.0714 49.2005C64.0714 50.6504 63.4844 52.0408 62.4396 53.066C61.3947 54.0913 59.9776 54.6672 58.5 54.6672ZM72.4286 46.4671H69.2529C68.6368 44.1261 67.2473 42.0514 65.3017 40.5677C63.3561 39.084 60.9641 38.2749 58.5 38.267V32.8003H72.4286V46.4671Z" fill="#BF9952"/>
</svg>
