<svg width="62" height="72" viewBox="0 0 62 72" fill="none" xmlns="http://www.w3.org/2000/svg">
<path d="M31 72L15.0453 63.5323C10.497 61.1237 6.69335 57.5276 4.04273 53.1301C1.39211 48.7326 -0.00545874 43.6997 1.60233e-05 38.5714V5.14286C0.00138384 3.7793 0.546167 2.47199 1.51481 1.50781C2.48345 0.543634 3.79682 0.00136151 5.16668 0H56.8333C58.2032 0.00136151 59.5165 0.543634 60.4852 1.50781C61.4538 2.47199 61.9986 3.7793 62 5.14286V38.5714C62.0055 43.6997 60.6079 48.7326 57.9573 53.1301C55.3067 57.5276 51.503 61.1237 46.9547 63.5323L31 72ZM5.16668 5.14286V38.5714C5.16239 42.7675 6.3062 46.8855 8.47532 50.4834C10.6444 54.0814 13.757 57.0234 17.4788 58.9937L31 66.1706L44.5212 58.9963C48.2434 57.0258 51.3562 54.0834 53.5253 50.4849C55.6945 46.8865 56.8381 42.7679 56.8333 38.5714V5.14286H5.16668Z" fill="#BF9952"/>
<path d="M31 59.8551V10.2856H51.6667V38.0699C51.6665 41.3293 50.7773 44.5274 49.0939 47.323C47.4105 50.1186 44.9961 52.4068 42.1083 53.9434L31 59.8551Z" fill="#BF9952"/>
</svg>
