<svg width="28" height="34" viewBox="0 0 28 34" fill="none" xmlns="http://www.w3.org/2000/svg">
<path d="M9.5 33.3512C10.8807 33.3512 12 32.1354 12 30.6358C12 29.1361 10.8807 27.9204 9.5 27.9204C8.11929 27.9204 7 29.1361 7 30.6358C7 32.1354 8.11929 33.3512 9.5 33.3512Z" fill="#8B837D"/>
<path d="M23 33.3512C24.1046 33.3512 25 32.1354 25 30.6358C25 29.1361 24.1046 27.9204 23 27.9204C21.8954 27.9204 21 29.1361 21 30.6358C21 32.1354 21.8954 33.3512 23 33.3512Z" fill="#8B837D"/>
<path d="M27.0116 6.44434H5.61455L4.8235 1.67523C4.7784 1.41489 4.65716 1.18141 4.48089 1.01543C4.30463 0.849444 4.08449 0.761475 3.8588 0.766833H0V3.03783H3.06775L6.7529 24.8394C6.798 25.0998 6.91924 25.3333 7.09551 25.4993C7.27177 25.6652 7.49191 25.7532 7.7176 25.7478H25.0822V23.4768H8.50865L7.7176 18.9348H25.0822C25.3052 18.9413 25.5232 18.8565 25.6991 18.695C25.875 18.5335 25.9979 18.3053 26.0469 18.0492L27.9763 7.82965C28.0086 7.66117 28.0079 7.48623 27.9741 7.31814C27.9403 7.15005 27.8744 6.99325 27.7814 6.85967C27.6884 6.72609 27.5707 6.61924 27.4373 6.54727C27.3039 6.4753 27.1583 6.44009 27.0116 6.44434ZM24.3104 16.6638H7.35101L6.00043 8.71534H25.8057L24.3104 16.6638Z" fill="#8B837D"/>
</svg>
