<svg width="24" height="24" viewBox="0 0 24 24" fill="none" xmlns="http://www.w3.org/2000/svg">
<rect x="0.5" y="0.5" width="23" height="23" rx="11.5"/>
<path d="M10.7736 16.8815L15.8607 12.3015C15.95 12.2211 16 12.1132 16 12.0009C16 11.8885 15.95 11.7806 15.8607 11.7002L10.7736 7.11854C10.732 7.08102 10.6822 7.05121 10.6273 7.03085C10.5723 7.01049 10.5132 7 10.4536 7C10.3939 7 10.3349 7.01049 10.2799 7.03085C10.2249 7.05121 10.1752 7.08102 10.1336 7.11854C10.0479 7.19547 10 7.29875 10 7.40629C10 7.51383 10.0479 7.61711 10.1336 7.69404L14.9173 12.0009L10.1336 16.3068C10.0482 16.3837 10.0005 16.4868 10.0005 16.5941C10.0005 16.7015 10.0482 16.8046 10.1336 16.8815C10.1752 16.919 10.2249 16.9488 10.2799 16.9692C10.3349 16.9895 10.3939 17 10.4536 17C10.5132 17 10.5723 16.9895 10.6273 16.9692C10.6822 16.9488 10.732 16.919 10.7736 16.8815Z" fill="#8B837D"/>
<rect x="0.5" y="0.5" width="23" height="23" rx="11.5" stroke="#8B837D"/>
</svg>
