<svg width="24" height="24" viewBox="0 0 24 24" fill="none" xmlns="http://www.w3.org/2000/svg">
<rect x="0.5" y="0.5" width="23" height="23" rx="11.5"/>
<path d="M13.2264 7.11854L8.13935 11.6985C8.05 11.7789 8 11.8868 8 11.9991C8 12.1115 8.05 12.2194 8.13935 12.2998L13.2264 16.8815C13.268 16.919 13.3178 16.9488 13.3727 16.9692C13.4277 16.9895 13.4868 17 13.5464 17C13.6061 17 13.6651 16.9895 13.7201 16.9692C13.7751 16.9488 13.8248 16.919 13.8664 16.8815C13.9521 16.8045 14 16.7013 14 16.5937C14 16.4862 13.9521 16.3829 13.8664 16.306L9.08274 11.9991L13.8664 7.69318C13.9518 7.61629 13.9995 7.5132 13.9995 7.40586C13.9995 7.29853 13.9518 7.19543 13.8664 7.11854C13.8248 7.08102 13.7751 7.05121 13.7201 7.03085C13.6651 7.01049 13.6061 7 13.5464 7C13.4868 7 13.4277 7.01049 13.3727 7.03085C13.3178 7.05121 13.268 7.08102 13.2264 7.11854Z" fill="#8B837D"/>
<rect x="0.5" y="0.5" width="23" height="23" rx="11.5" stroke="#8B837D"/>
</svg>
