<svg width="58" height="72" viewBox="0 0 58 72" fill="none" xmlns="http://www.w3.org/2000/svg">
<path d="M29 0C45.0012 0 58 16.1345 58 36C58 55.8982 45.0012 72 29 72C12.9988 72 0 55.8982 0 36C0 16.1345 12.9988 0 29 0ZM29 6.54545C16.7518 6.54545 6.82353 19.7345 6.82353 36C6.82353 52.2655 16.7518 65.4545 29 65.4545C41.2482 65.4545 51.1765 52.2655 51.1765 36C51.1765 19.7345 41.2482 6.54545 29 6.54545ZM16.3424 30.3709L27.3965 19.7345L31.0129 23.2036L19.9588 33.84L16.3424 30.3709ZM17.7412 44.5418L37.0518 26.0182L40.6682 29.4545L21.3576 48.0109L17.7412 44.5418Z" fill="#BF9952"/>
</svg>
