<svg width="109" height="57" viewBox="0 0 109 57" fill="none" xmlns="http://www.w3.org/2000/svg">
<line x1="107.5" y1="55" x2="107.5" y2="21" stroke="black"/>
<line x1="108" y1="54.5" x2="74" y2="54.5" stroke="black"/>
<path d="M28.892 21.326H30.52V34.46H34.568V36H28.892V21.326ZM36.7768 21.326H38.4048V36H36.7768V21.326ZM43.8188 21.326V27.618L50.0668 21.326H52.2668L45.4028 28.168L52.4868 36H50.2428L44.2368 29.268L43.8188 29.686V36H42.1908V21.326H43.8188ZM56.3227 21.326V27.618L62.5707 21.326H64.7707L57.9067 28.168L64.9907 36H62.7467L56.7407 29.268L56.3227 29.686V36H54.6947V21.326H56.3227ZM78.314 34.086C76.8473 35.538 75.0433 36.264 72.902 36.264C70.7606 36.264 68.9493 35.538 67.468 34.086C66.0013 32.634 65.268 30.83 65.268 28.674C65.268 26.5033 66.0086 24.6993 67.49 23.262C68.9713 21.81 70.7753 21.084 72.902 21.084C75.0286 21.084 76.8326 21.81 78.314 23.262C79.7953 24.6993 80.536 26.5033 80.536 28.674C80.536 30.83 79.7953 32.634 78.314 34.086ZM77.126 24.384C75.9673 23.2107 74.5593 22.624 72.902 22.624C71.2446 22.624 69.8366 23.2107 68.678 24.384C67.5193 25.5573 66.94 26.9873 66.94 28.674C66.94 30.3607 67.5193 31.7907 68.678 32.964C69.8366 34.1373 71.2446 34.724 72.902 34.724C74.5593 34.724 75.9673 34.1373 77.126 32.964C78.2846 31.7907 78.864 30.3607 78.864 28.674C78.864 26.9873 78.2846 25.5573 77.126 24.384Z" fill="black"/>
<line x1="1.5" y1="2" x2="1.5" y2="36" stroke="black"/>
<line x1="1" y1="1.5" x2="35" y2="1.5" stroke="black"/>
</svg>
